G04 #@! TF.FileFunction,Copper,L1,Top,Signal*
%FSLAX46Y46*%
G04 Gerber Fmt 4.6, Leading zero omitted, Abs format (unit mm)*
G04 Created by KiCad (PCBNEW 4.0.6-e0-6349~52~ubuntu16.10.1) date Mon Nov  6 09:48:41 2017*
%MOMM*%
%LPD*%
G01*
G04 APERTURE LIST*
%ADD10C,0.100000*%
%ADD11C,4.064000*%
%ADD12R,1.200000X1.200000*%
%ADD13C,1.200000*%
%ADD14C,2.000000*%
%ADD15O,2.000000X1.200000*%
%ADD16R,2.000000X1.200000*%
%ADD17O,1.200000X2.000000*%
%ADD18C,1.000000*%
%ADD19C,0.700000*%
G04 APERTURE END LIST*
D10*
D11*
X119380000Y-113030000D03*
X119380000Y-78740000D03*
X165735000Y-113030000D03*
D12*
X149860000Y-107950000D03*
D13*
X149860000Y-109450000D03*
D14*
X125040000Y-99695000D03*
X129540000Y-99695000D03*
X125040000Y-106195000D03*
X129540000Y-106195000D03*
D15*
X159385000Y-109855000D03*
D16*
X161925000Y-109855000D03*
D15*
X159385000Y-107315000D03*
X161925000Y-107315000D03*
X159385000Y-104775000D03*
X161925000Y-104775000D03*
X159385000Y-102235000D03*
X161925000Y-102235000D03*
D17*
X126365000Y-80010000D03*
X126365000Y-95100000D03*
X128905000Y-80010000D03*
X128905000Y-95100000D03*
X131445000Y-80010000D03*
X131445000Y-95100000D03*
X133985000Y-80010000D03*
X133985000Y-95100000D03*
X136525000Y-80010000D03*
X136525000Y-95100000D03*
X139065000Y-80010000D03*
X139065000Y-95100000D03*
X141605000Y-80010000D03*
X141605000Y-95100000D03*
X144145000Y-80010000D03*
X144145000Y-95100000D03*
X146685000Y-80010000D03*
X146685000Y-95100000D03*
X149225000Y-80010000D03*
X149225000Y-95100000D03*
X151765000Y-80010000D03*
X151765000Y-95100000D03*
X154305000Y-80010000D03*
X154305000Y-95100000D03*
X156845000Y-80010000D03*
X156845000Y-95100000D03*
X159385000Y-80010000D03*
X159385000Y-95100000D03*
X161925000Y-80010000D03*
X161925000Y-95100000D03*
D11*
X165735000Y-78740000D03*
D18*
X139700000Y-103505000D03*
X158095010Y-92729990D03*
X159385000Y-100330000D03*
D19*
X133985000Y-80010000D02*
X133985000Y-82550000D01*
X133985000Y-86995000D02*
X133985000Y-82550000D01*
X140315010Y-93325010D02*
X133985000Y-86995000D01*
X139700000Y-103505000D02*
X140315010Y-102889990D01*
X140315010Y-102889990D02*
X140315010Y-93325010D01*
X139065000Y-95500000D02*
X139065000Y-95100000D01*
X159385000Y-100330000D02*
X158095010Y-99040010D01*
X158095010Y-99040010D02*
X158095010Y-92729990D01*
M02*
