M48
;DRILL file {KiCad 4.0.6-e0-6349~52~ubuntu16.10.1} date Mon Nov  6 09:48:46 2017
;FORMAT={-:-/ absolute / inch / decimal}
FMAT,2
INCH,TZ
T1C0.024
T2C0.031
T3C0.043
T4C0.120
%
G90
G05
M72
T1
X5.9Y-4.25
X5.9Y-4.3091
T2
X4.975Y-3.15
X4.975Y-3.7441
X5.075Y-3.15
X5.075Y-3.7441
X5.175Y-3.15
X5.175Y-3.7441
X5.275Y-3.15
X5.275Y-3.7441
X5.375Y-3.15
X5.375Y-3.7441
X5.475Y-3.15
X5.475Y-3.7441
X5.5Y-4.075
X5.575Y-3.15
X5.575Y-3.7441
X5.675Y-3.15
X5.675Y-3.7441
X5.775Y-3.15
X5.775Y-3.7441
X5.875Y-3.15
X5.875Y-3.7441
X5.975Y-3.15
X5.975Y-3.7441
X6.075Y-3.15
X6.075Y-3.7441
X6.175Y-3.15
X6.175Y-3.7441
X6.2242Y-3.6508
X6.275Y-3.15
X6.275Y-3.7441
X6.275Y-3.95
X6.275Y-4.025
X6.275Y-4.125
X6.275Y-4.225
X6.275Y-4.325
X6.375Y-3.15
X6.375Y-3.7441
X6.375Y-4.025
X6.375Y-4.125
X6.375Y-4.225
X6.375Y-4.325
T3
X4.9228Y-3.925
X4.9228Y-4.1809
X5.1Y-3.925
X5.1Y-4.1809
T4
X4.7Y-3.1
X4.7Y-4.45
X6.525Y-3.1
X6.525Y-4.45
T0
M30
